# xmcd CD database file
#
# Track frame offsets:
#	150
#	25490
#	53887
#	86400
#	117582
#	140262
#	175747
#	222245
#	257390
#	298620
#
# Disc length: 4452 seconds
#
# Revision: 0
# Processed by: cddbd v1.5.2PL0 Copyright (c) Steve Scherf et al.
# Submitted via: CDex 1.70beta2
#
DISCID=8d11620a
DTITLE=Orchestre National De Jazz Luxembourg - feat. George Duke and Didier Lockwood
DYEAR=2006
DGENRE=Jazz
TTITLE0=5 Steps Backwards
TTITLE1=Weird and High
TTITLE2=Forests Ancient As The Hills  (Live)
TTITLE3=Nice 2 See U
TTITLE4=Sea Of Ice
TTITLE5=Slow and Gentle
TTITLE6=Lets Mambo
TTITLE7=Running In Lost Circles
TTITLE8=Turning
TTITLE9=Would U Be So Kind
EXTD=YEAR: 2006
EXTT0=
EXTT1=
EXTT2=
EXTT3=
EXTT4=
EXTT5=
EXTT6=
EXTT7=
EXTT8=
EXTT9=
PLAYORDER=
